<?xml version="1.0" encoding="UTF-8" standalone="no"?>
<svg
   width="129"
   height="109"
   version="1"
   id="svg97"
   sodipodi:docname="plasmoidheading.svg"
   inkscape:version="1.2.2 (b0a8486541, 2022-12-01)"
   xmlns:inkscape="http://www.inkscape.org/namespaces/inkscape"
   xmlns:sodipodi="http://sodipodi.sourceforge.net/DTD/sodipodi-0.dtd"
   xmlns="http://www.w3.org/2000/svg"
   xmlns:svg="http://www.w3.org/2000/svg">
  <defs
     id="defs101" />
  <sodipodi:namedview
     id="namedview99"
     pagecolor="#ffffff"
     bordercolor="#000000"
     borderopacity="0.25"
     inkscape:showpageshadow="2"
     inkscape:pageopacity="0.0"
     inkscape:pagecheckerboard="0"
     inkscape:deskcolor="#d1d1d1"
     showgrid="false"
     inkscape:zoom="6.6697248"
     inkscape:cx="64.545392"
     inkscape:cy="54.425034"
     inkscape:window-width="1920"
     inkscape:window-height="1007"
     inkscape:window-x="0"
     inkscape:window-y="0"
     inkscape:window-maximized="1"
     inkscape:current-layer="svg97" />
  <rect
     id="footer-center"
     style="fill:#2f343f;opacity:0.7"
     width="50"
     height="50"
     x="72"
     y="-102"
     transform="scale(1,-1)" />
  <g
     id="footer-left"
     transform="matrix(1,0,0,-1,55,119.00007)"
     style="opacity:0.7">
    <path
       style="fill:#2f343f"
       d="m 10.000015,16.999925 v 50 l 7,10e-6 v -50 z"
       id="path3" />
    <path
       style="opacity:0.2"
       d="m 10,17 v 50 h 1 V 17 Z"
       id="path5" />
  </g>
  <g
     id="footer-right"
     transform="matrix(1,0,0,-1,55,119.00007)"
     style="opacity:0.7">
    <path
       style="fill:#2f343f"
       d="m 73.999995,16.999935 v 50 l -7,1e-5 v -50 z"
       id="path8" />
    <path
       style="opacity:0.2"
       d="m 73,17 v 50 h 1 V 17 Z"
       id="path10" />
  </g>
  <g
     id="footer-top"
     transform="matrix(1,0,0,-1,65,153.939)"
     style="opacity:0.7">
    <path
       style="fill:#2f343f"
       d="m 6.999975,107.939 h 50.00002 v -6 H 6.999985 Z"
       id="path13" />
    <path
       style="opacity:0.2"
       d="m 7,107.93893 v 1 h 50 v -1 z"
       id="path15" />
  </g>
  <g
     id="footer-bottom"
     transform="matrix(1,0,0,-1,55,119.00007)"
     style="opacity:0.7">
    <path
       style="fill:#2f343f"
       d="m 16.999975,9.999935 h 50.00002 v 7 h -50.00001 z"
       id="path18" />
    <path
       style="opacity:0.2"
       d="m 17,10 v 1 h 50 v -1 z"
       id="path20" />
  </g>
  <g
     id="footer-bottomright"
     transform="matrix(1,0,0,-1,55,119.00007)"
     style="opacity:0.7">
    <path
       style="fill:#2f343f"
       d="m 66.999995,9.999935 v 7 h 7 v -2 c 0,-2.77 -2.23,-5 -5,-5 z"
       id="path23" />
    <path
       style="opacity:0.2"
       d="m 67,10 v 1 h 2 c 2.233297,0 4,1.766703 4,4 v 2 h 1 v -2 c 0,-2.77 -2.23,-5 -5,-5 z"
       id="path25" />
  </g>
  <g
     id="footer-bottomleft"
     transform="matrix(1,0,0,-1,55,119.00007)"
     style="opacity:0.7">
    <path
       style="fill:#2f343f"
       d="m 17.000005,9.999935 v 7 h -7 v -2 c 0,-2.77 2.23,-5 5,-5 z"
       id="path28" />
    <path
       style="opacity:0.2"
       d="m 15,10 c -2.77,0 -5,2.23 -5,5 v 2 h 1 v -2 c 0,-2.233297 1.766703,-4 4,-4 h 2 v -1 z"
       id="path30" />
  </g>
  <g
     id="footer-topleft"
     transform="matrix(1,0,0,-1,65,153.939)"
     style="opacity:0.7">
    <rect
       style="fill:#2f343f"
       width="7"
       height="6"
       x="0"
       y="101.94"
       id="rect33" />
    <rect
       style="opacity:0.2"
       width="7"
       height="1"
       x="0"
       y="107.94"
       id="rect35" />
    <rect
       style="opacity:0.2"
       width="1"
       height="6"
       x="0"
       y="101.94"
       id="rect37" />
  </g>
  <g
     id="footer-topright"
     transform="rotate(180,64.5,76.969008)"
     style="opacity:0.7">
    <rect
       style="fill:#2f343f"
       width="7"
       height="6"
       x="0"
       y="101.94"
       id="rect40" />
    <rect
       style="opacity:0.2"
       width="7"
       height="1"
       x="0"
       y="107.94"
       id="rect42" />
    <rect
       style="opacity:0.2"
       width="1"
       height="6"
       x="0"
       y="101.94"
       id="rect44" />
  </g>
  <rect
     id="header-center"
     style="fill:#2f343f;opacity:0.7"
     width="50"
     height="50"
     x="7"
     y="52" />
  <g
     id="header-left"
     transform="translate(-10,34.998925)"
     style="opacity:0.7">
    <path
       style="fill:#2f343f"
       d="m 10.000015,16.999925 v 50 l 7,10e-6 v -50 z"
       id="path48" />
    <path
       style="opacity:0.2"
       d="m 10,17 v 50 h 1 V 17 Z"
       id="path50" />
  </g>
  <g
     id="header-right"
     transform="translate(-10,34.998925)"
     style="opacity:0.7">
    <path
       style="fill:#2f343f"
       d="m 73.999995,16.999935 v 50 l -7,1e-5 v -50 z"
       id="path53" />
    <path
       style="opacity:0.2"
       d="m 73,17 v 50 h 1 V 17 Z"
       id="path55" />
  </g>
  <g
     id="header-bottom"
     transform="translate(0,0.05999464)"
     style="opacity:0.7">
    <path
       style="fill:#2f343f"
       d="m 6.999975,107.939 h 50.00002 v -6 H 6.999985 Z"
       id="path58" />
    <path
       style="opacity:0.2"
       d="m 7,107.93893 v 1 h 50 v -1 z"
       id="path60" />
  </g>
  <g
     id="header-top"
     transform="translate(-10,34.998925)"
     style="opacity:0.7">
    <path
       style="fill:#2f343f"
       d="m 16.999975,9.999935 h 50.00002 v 7 h -50.00001 z"
       id="path63" />
    <path
       style="opacity:0.2"
       d="m 17,10 v 1 h 50 v -1 z"
       id="path65" />
  </g>
  <g
     id="header-topright"
     transform="translate(-10,34.998925)"
     style="opacity:0.7">
    <path
       style="fill:#2f343f"
       d="m 66.999995,9.999935 v 7 h 7 v -2 c 0,-2.77 -2.23,-5 -5,-5 z"
       id="path68" />
    <path
       style="opacity:0.2"
       d="m 67,10 v 1 h 2 c 2.233297,0 4,1.766703 4,4 v 2 h 1 v -2 c 0,-2.77 -2.23,-5 -5,-5 z"
       id="path70" />
  </g>
  <g
     id="header-topleft"
     transform="translate(-10,34.998925)"
     style="opacity:0.7">
    <path
       style="fill:#2f343f"
       d="m 17.000005,9.999935 v 7 h -7 v -2 c 0,-2.77 2.23,-5 5,-5 z"
       id="path73" />
    <path
       style="opacity:0.2"
       d="m 15,10 c -2.77,0 -5,2.23 -5,5 v 2 h 1 v -2 c 0,-2.233297 1.766703,-4 4,-4 h 2 v -1 z"
       id="path75" />
  </g>
  <rect
     id="hint-top-margin"
     style="fill:#ff0000;opacity:0.7"
     width="4"
     height="7"
     x="29"
     y="52" />
  <rect
     id="hint-bottom-margin"
     style="fill:#ff0000;opacity:0.7"
     width="4"
     height="7"
     x="29"
     y="95" />
  <rect
     id="hint-left-margin"
     style="fill:#ff0000;opacity:0.7"
     width="7"
     height="4"
     x="7"
     y="74" />
  <rect
     id="hint-right-margin"
     style="fill:#ff0000;opacity:0.7"
     width="7"
     height="4"
     x="50"
     y="74" />
  <rect
     id="hint-tile-center"
     style="fill:#ff0000"
     width="5"
     height="5"
     x="0"
     y="0" />
  <g
     id="header-bottomleft"
     transform="translate(0,0.05999464)"
     style="opacity:0.7">
    <rect
       style="fill:#2f343f"
       width="7"
       height="6"
       x="0"
       y="101.94"
       id="rect83" />
    <rect
       style="opacity:0.2"
       width="7"
       height="1"
       x="0"
       y="107.94"
       id="rect85" />
    <rect
       style="opacity:0.2"
       width="1"
       height="6"
       x="0"
       y="101.94"
       id="rect87" />
  </g>
  <g
     id="header-bottomright"
     transform="matrix(-1,0,0,1,64,0.06099464)"
     style="opacity:0.7">
    <rect
       style="fill:#2f343f"
       width="7"
       height="6"
       x="0"
       y="101.94"
       id="rect90" />
    <rect
       style="opacity:0.2"
       width="7"
       height="1"
       x="0"
       y="107.94"
       id="rect92" />
    <rect
       style="opacity:0.2"
       width="1"
       height="6"
       x="0"
       y="101.94"
       id="rect94" />
  </g>
</svg>
